<svg xmlns="http://www.w3.org/2000/svg" version="1.1" xmlns:xlink="http://www.w3.org/1999/xlink" xmlns:svgjs="http://svgjs.com/svgjs" width="1920" height="1080" preserveAspectRatio="none" viewBox="0 0 1920 1080"><g mask="url(&quot;#SvgjsMask1158&quot;)" fill="none"><rect width="1920" height="1080" x="0" y="0" fill="rgba(45, 43, 66, 1)"></rect><path d="M 0,97 C 128,148.8 384,324.6 640,356 C 896,387.4 1024,244 1280,254 C 1536,264 1792,375.6 1920,406L1920 1080L0 1080z" fill="rgba(217, 4, 41, 1)"></path><path d="M 0,875 C 96,857.2 288,773.8 480,786 C 672,798.2 768,935.2 960,936 C 1152,936.8 1248,798.4 1440,790 C 1632,781.6 1824,873.2 1920,894L1920 1080L0 1080z" fill="rgba(239, 35, 60, 1)"></path></g><defs><mask id="SvgjsMask1158"><rect width="1920" height="1080" fill="#ffffff"></rect></mask></defs></svg>