<svg width="30" height="30" viewBox="0 0 30 30" fill="current" xmlns="http://www.w3.org/2000/svg">
<path d="M26.35 8.75C26.134 8.37577 25.8247 8.06391 25.4523 7.84484C25.0799 7.62577 24.657 7.50696 24.225 7.5H8.225L7.5 4.675C7.42675 4.4023 7.26333 4.16243 7.03635 3.99447C6.80937 3.8265 6.5322 3.74033 6.25 3.75H3.75C3.41848 3.75 3.10054 3.8817 2.86612 4.11612C2.6317 4.35054 2.5 4.66848 2.5 5C2.5 5.33152 2.6317 5.64946 2.86612 5.88388C3.10054 6.1183 3.41848 6.25 3.75 6.25H5.3L8.75 19.075C8.82325 19.3477 8.98667 19.5876 9.21365 19.7555C9.44063 19.9235 9.7178 20.0097 10 20H21.25C21.4808 19.9993 21.707 19.9347 21.9033 19.8133C22.0997 19.692 22.2586 19.5186 22.3625 19.3125L26.4625 11.1125C26.6402 10.74 26.7229 10.3293 26.7033 9.9171C26.6837 9.50487 26.5623 9.10391 26.35 8.75V8.75ZM20.475 17.5H10.95L8.9125 10H24.225L20.475 17.5Z" fill="#EF233C"/>
<path d="M9.37506 26.25C10.4106 26.25 11.2501 25.4105 11.2501 24.375C11.2501 23.3395 10.4106 22.5 9.37506 22.5C8.33953 22.5 7.50006 23.3395 7.50006 24.375C7.50006 25.4105 8.33953 26.25 9.37506 26.25Z" fill="#EF233C"/>
<path d="M21.8751 26.25C22.9106 26.25 23.7501 25.4105 23.7501 24.375C23.7501 23.3395 22.9106 22.5 21.8751 22.5C20.8395 22.5 20.0001 23.3395 20.0001 24.375C20.0001 25.4105 20.8395 26.25 21.8751 26.25Z" fill="#EF233C"/>
</svg>
