<svg width="30" height="30" viewBox="0 0 30 30" fill="current" xmlns="http://www.w3.org/2000/svg">
<path d="M21.95 26.25C21.7501 26.2508 21.5529 26.2036 21.375 26.1125L15 22.775L8.62501 26.1125C8.418 26.2213 8.1846 26.2699 7.95135 26.2527C7.7181 26.2355 7.49436 26.1533 7.30554 26.0152C7.11673 25.8772 6.97043 25.689 6.88328 25.4719C6.79612 25.2549 6.7716 25.0178 6.81251 24.7875L8.06251 17.75L2.91251 12.75C2.75183 12.5896 2.63785 12.3886 2.58279 12.1683C2.52774 11.9481 2.53369 11.7171 2.60001 11.5C2.67246 11.2778 2.80573 11.0804 2.9847 10.9302C3.16366 10.7799 3.38116 10.6829 3.61251 10.65L10.7375 9.61248L13.875 3.19998C13.9774 2.98864 14.1372 2.81041 14.3361 2.6857C14.5351 2.56099 14.7652 2.49484 15 2.49484C15.2348 2.49484 15.4649 2.56099 15.6639 2.6857C15.8628 2.81041 16.0227 2.98864 16.125 3.19998L19.3 9.59998L26.425 10.6375C26.6564 10.6704 26.8739 10.7674 27.0528 10.9177C27.2318 11.0679 27.3651 11.2653 27.4375 11.4875C27.5038 11.7046 27.5098 11.9356 27.4547 12.1558C27.3997 12.3761 27.2857 12.5771 27.125 12.7375L21.975 17.7375L23.225 24.775C23.2696 25.0093 23.2463 25.2515 23.1577 25.473C23.0691 25.6945 22.9189 25.8861 22.725 26.025C22.4987 26.1836 22.2261 26.2627 21.95 26.25V26.25ZM15 20.125C15.2004 20.1199 15.3986 20.1673 15.575 20.2625L20.2875 22.7625L19.3875 17.5C19.3526 17.299 19.3674 17.0926 19.4306 16.8987C19.4937 16.7048 19.6034 16.5293 19.75 16.3875L23.5 12.725L18.25 11.95C18.0575 11.9112 17.8768 11.8276 17.7226 11.706C17.5684 11.5844 17.4451 11.4282 17.3625 11.25L15 6.56248L12.6375 11.25C12.5471 11.4296 12.4146 11.5848 12.2514 11.7023C12.0882 11.8198 11.899 11.8962 11.7 11.925L6.45001 12.7L10.2 16.3625C10.3466 16.5043 10.4563 16.6798 10.5195 16.8737C10.5826 17.0676 10.5974 17.274 10.5625 17.475L9.66251 22.675L14.375 20.175C14.5747 20.1007 14.7911 20.0834 15 20.125V20.125Z" fill="#EF233C"/>
</svg>
