<svg width="178" height="48" viewBox="0 0 178 48" fill="none" xmlns="http://www.w3.org/2000/svg">
<path d="M21.728 35H14.624L9.12 23.608L7.104 35H0L4 12.344H11.104L16.576 23.928L18.624 12.344H25.728L21.728 35Z" fill="#EF233C"/>
<path d="M41.0655 31.576H33.5135L32.3935 35H24.9375L33.2255 12.344H41.4175L49.6735 35H42.1855L41.0655 31.576ZM39.3375 26.232L37.2895 19.928L35.2415 26.232H39.3375ZM62.6795 35L58.4235 26.872H58.3915V35H51.2875V12.344H61.8475C63.6822 12.344 65.2502 12.6747 66.5515 13.336C67.8528 13.976 68.8235 14.8613 69.4635 15.992C70.1248 17.1013 70.4555 18.36 70.4555 19.768C70.4555 21.2827 70.0288 22.6267 69.1755 23.8C68.3435 24.9733 67.1382 25.816 65.5595 26.328L70.4875 35H62.6795ZM58.3915 22.136H61.2075C61.8902 22.136 62.4022 21.9867 62.7435 21.688C63.0848 21.368 63.2555 20.8773 63.2555 20.216C63.2555 19.6187 63.0742 19.1493 62.7115 18.808C62.3702 18.4667 61.8688 18.296 61.2075 18.296H58.3915V22.136ZM86.421 35L79.829 25.176V35H72.725V12.344H79.829V21.88L86.325 12.344H94.357L86.549 23.192L94.869 35H86.421ZM107.921 35.224C105.788 35.224 103.825 34.7227 102.033 33.72C100.263 32.7173 98.8546 31.3307 97.8093 29.56C96.7639 27.7893 96.2413 25.7947 96.2413 23.576C96.2413 21.3573 96.7639 19.3627 97.8093 17.592C98.8546 15.8213 100.263 14.4453 102.033 13.464C103.825 12.4613 105.788 11.96 107.921 11.96C110.055 11.96 112.007 12.4613 113.777 13.464C115.548 14.4453 116.945 15.8213 117.969 17.592C119.015 19.3627 119.537 21.3573 119.537 23.576C119.537 25.7947 119.015 27.7893 117.969 29.56C116.945 31.3307 115.537 32.7173 113.745 33.72C111.975 34.7227 110.033 35.224 107.921 35.224ZM107.921 28.6C109.329 28.6 110.417 28.152 111.185 27.256C111.953 26.3387 112.337 25.112 112.337 23.576C112.337 22.0187 111.953 20.792 111.185 19.896C110.417 18.9787 109.329 18.52 107.921 18.52C106.492 18.52 105.393 18.9787 104.625 19.896C103.857 20.792 103.473 22.0187 103.473 23.576C103.473 25.112 103.857 26.3387 104.625 27.256C105.393 28.152 106.492 28.6 107.921 28.6Z" fill="white"/>
<path d="M132.26 35.16C131.047 35.16 130.053 34.8933 129.28 34.36C128.52 33.8267 128.093 33.0667 128 32.08H128.92C128.987 32.7867 129.307 33.3467 129.88 33.76C130.467 34.1733 131.26 34.38 132.26 34.38C133.087 34.38 133.74 34.1733 134.22 33.76C134.713 33.3333 134.96 32.8133 134.96 32.2C134.96 31.7733 134.827 31.4267 134.56 31.16C134.307 30.88 133.987 30.6667 133.6 30.52C133.213 30.3733 132.687 30.2133 132.02 30.04C131.22 29.8267 130.573 29.62 130.08 29.42C129.587 29.2067 129.167 28.8933 128.82 28.48C128.473 28.0667 128.3 27.5133 128.3 26.82C128.3 26.3133 128.453 25.8467 128.76 25.42C129.067 24.98 129.493 24.6333 130.04 24.38C130.587 24.1267 131.207 24 131.9 24C133.033 24 133.947 24.2867 134.64 24.86C135.347 25.42 135.727 26.2 135.78 27.2H134.88C134.84 26.48 134.56 25.8933 134.04 25.44C133.52 24.9867 132.8 24.76 131.88 24.76C131.107 24.76 130.467 24.96 129.96 25.36C129.453 25.76 129.2 26.2467 129.2 26.82C129.2 27.3267 129.34 27.74 129.62 28.06C129.913 28.3667 130.267 28.6067 130.68 28.78C131.107 28.94 131.667 29.1133 132.36 29.3C133.12 29.5 133.727 29.7 134.18 29.9C134.647 30.0867 135.04 30.3667 135.36 30.74C135.68 31.1 135.84 31.5867 135.84 32.2C135.84 32.76 135.687 33.2667 135.38 33.72C135.073 34.1733 134.647 34.5267 134.1 34.78C133.553 35.0333 132.94 35.16 132.26 35.16ZM148.361 28.84C148.361 29.32 148.348 29.68 148.321 29.92H138.941C138.968 30.8933 139.181 31.7133 139.581 32.38C139.981 33.0467 140.508 33.5467 141.161 33.88C141.815 34.2133 142.528 34.38 143.301 34.38C144.368 34.38 145.261 34.12 145.981 33.6C146.701 33.0667 147.155 32.3467 147.341 31.44H148.281C148.068 32.5467 147.521 33.4467 146.641 34.14C145.761 34.82 144.648 35.16 143.301 35.16C142.288 35.16 141.381 34.9333 140.581 34.48C139.781 34.0267 139.155 33.38 138.701 32.54C138.248 31.6867 138.021 30.6933 138.021 29.56C138.021 28.4267 138.241 27.44 138.681 26.6C139.135 25.76 139.761 25.12 140.561 24.68C141.361 24.2267 142.275 24 143.301 24C144.341 24 145.241 24.2267 146.001 24.68C146.775 25.12 147.361 25.7133 147.761 26.46C148.161 27.1933 148.361 27.9867 148.361 28.84ZM147.461 29.18C147.501 28.22 147.328 27.4067 146.941 26.74C146.568 26.0733 146.055 25.58 145.401 25.26C144.748 24.9267 144.041 24.76 143.281 24.76C142.521 24.76 141.815 24.9267 141.161 25.26C140.521 25.58 139.995 26.0733 139.581 26.74C139.181 27.4067 138.968 28.22 138.941 29.18H147.461ZM151.981 20.2V35H151.081V20.2H151.981ZM156.181 20.2V35H155.281V20.2H156.181ZM169.26 28.84C169.26 29.32 169.247 29.68 169.22 29.92H159.84C159.867 30.8933 160.08 31.7133 160.48 32.38C160.88 33.0467 161.407 33.5467 162.06 33.88C162.713 34.2133 163.427 34.38 164.2 34.38C165.267 34.38 166.16 34.12 166.88 33.6C167.6 33.0667 168.053 32.3467 168.24 31.44H169.18C168.967 32.5467 168.42 33.4467 167.54 34.14C166.66 34.82 165.547 35.16 164.2 35.16C163.187 35.16 162.28 34.9333 161.48 34.48C160.68 34.0267 160.053 33.38 159.6 32.54C159.147 31.6867 158.92 30.6933 158.92 29.56C158.92 28.4267 159.14 27.44 159.58 26.6C160.033 25.76 160.66 25.12 161.46 24.68C162.26 24.2267 163.173 24 164.2 24C165.24 24 166.14 24.2267 166.9 24.68C167.673 25.12 168.26 25.7133 168.66 26.46C169.06 27.1933 169.26 27.9867 169.26 28.84ZM168.36 29.18C168.4 28.22 168.227 27.4067 167.84 26.74C167.467 26.0733 166.953 25.58 166.3 25.26C165.647 24.9267 164.94 24.76 164.18 24.76C163.42 24.76 162.713 24.9267 162.06 25.26C161.42 25.58 160.893 26.0733 160.48 26.74C160.08 27.4067 159.867 28.22 159.84 29.18H168.36ZM172.88 26.38C173.147 25.58 173.62 24.9733 174.3 24.56C174.98 24.1333 175.847 23.92 176.9 23.92V24.86H176.6C175.533 24.86 174.647 25.1667 173.94 25.78C173.233 26.38 172.88 27.3667 172.88 28.74V35H171.98V24.14H172.88V26.38Z" fill="white"/>
</svg>
