<svg width="177" height="48" viewBox="0 0 177 48" fill="none" xmlns="http://www.w3.org/2000/svg">
<path d="M21.728 35H14.624L9.12 23.608L7.104 35H0L4 12.344H11.104L16.576 23.928L18.624 12.344H25.728L21.728 35Z" fill="#EF233C"/>
<path d="M41.0655 31.576H33.5135L32.3935 35H24.9375L33.2255 12.344H41.4175L49.6735 35H42.1855L41.0655 31.576ZM39.3375 26.232L37.2895 19.928L35.2415 26.232H39.3375ZM62.6795 35L58.4235 26.872H58.3915V35H51.2875V12.344H61.8475C63.6822 12.344 65.2502 12.6747 66.5515 13.336C67.8528 13.976 68.8235 14.8613 69.4635 15.992C70.1248 17.1013 70.4555 18.36 70.4555 19.768C70.4555 21.2827 70.0288 22.6267 69.1755 23.8C68.3435 24.9733 67.1382 25.816 65.5595 26.328L70.4875 35H62.6795ZM58.3915 22.136H61.2075C61.8902 22.136 62.4022 21.9867 62.7435 21.688C63.0848 21.368 63.2555 20.8773 63.2555 20.216C63.2555 19.6187 63.0742 19.1493 62.7115 18.808C62.3702 18.4667 61.8688 18.296 61.2075 18.296H58.3915V22.136ZM86.421 35L79.829 25.176V35H72.725V12.344H79.829V21.88L86.325 12.344H94.357L86.549 23.192L94.869 35H86.421ZM107.921 35.224C105.788 35.224 103.825 34.7227 102.033 33.72C100.263 32.7173 98.8546 31.3307 97.8093 29.56C96.7639 27.7893 96.2413 25.7947 96.2413 23.576C96.2413 21.3573 96.7639 19.3627 97.8093 17.592C98.8546 15.8213 100.263 14.4453 102.033 13.464C103.825 12.4613 105.788 11.96 107.921 11.96C110.055 11.96 112.007 12.4613 113.777 13.464C115.548 14.4453 116.945 15.8213 117.969 17.592C119.015 19.3627 119.537 21.3573 119.537 23.576C119.537 25.7947 119.015 27.7893 117.969 29.56C116.945 31.3307 115.537 32.7173 113.745 33.72C111.975 34.7227 110.033 35.224 107.921 35.224ZM107.921 28.6C109.329 28.6 110.417 28.152 111.185 27.256C111.953 26.3387 112.337 25.112 112.337 23.576C112.337 22.0187 111.953 20.792 111.185 19.896C110.417 18.9787 109.329 18.52 107.921 18.52C106.492 18.52 105.393 18.9787 104.625 19.896C103.857 20.792 103.473 22.0187 103.473 23.576C103.473 25.112 103.857 26.3387 104.625 27.256C105.393 28.152 106.492 28.6 107.921 28.6Z" fill="white"/>
<path d="M132.26 35.16C131.047 35.16 130.053 34.8933 129.28 34.36C128.52 33.8267 128.093 33.0667 128 32.08H128.92C128.987 32.7867 129.307 33.3467 129.88 33.76C130.467 34.1733 131.26 34.38 132.26 34.38C133.087 34.38 133.74 34.1733 134.22 33.76C134.713 33.3333 134.96 32.8133 134.96 32.2C134.96 31.7733 134.827 31.4267 134.56 31.16C134.307 30.88 133.987 30.6667 133.6 30.52C133.213 30.3733 132.687 30.2133 132.02 30.04C131.22 29.8267 130.573 29.62 130.08 29.42C129.587 29.2067 129.167 28.8933 128.82 28.48C128.473 28.0667 128.3 27.5133 128.3 26.82C128.3 26.3133 128.453 25.8467 128.76 25.42C129.067 24.98 129.493 24.6333 130.04 24.38C130.587 24.1267 131.207 24 131.9 24C133.033 24 133.947 24.2867 134.64 24.86C135.347 25.42 135.727 26.2 135.78 27.2H134.88C134.84 26.48 134.56 25.8933 134.04 25.44C133.52 24.9867 132.8 24.76 131.88 24.76C131.107 24.76 130.467 24.96 129.96 25.36C129.453 25.76 129.2 26.2467 129.2 26.82C129.2 27.3267 129.34 27.74 129.62 28.06C129.913 28.3667 130.267 28.6067 130.68 28.78C131.107 28.94 131.667 29.1133 132.36 29.3C133.12 29.5 133.727 29.7 134.18 29.9C134.647 30.0867 135.04 30.3667 135.36 30.74C135.68 31.1 135.84 31.5867 135.84 32.2C135.84 32.76 135.687 33.2667 135.38 33.72C135.073 34.1733 134.647 34.5267 134.1 34.78C133.553 35.0333 132.94 35.16 132.26 35.16ZM139.921 24.92V32.1C139.921 32.9 140.068 33.4533 140.361 33.76C140.655 34.0533 141.175 34.2 141.921 34.2H143.141V35H141.781C140.835 35 140.135 34.78 139.681 34.34C139.241 33.8867 139.021 33.14 139.021 32.1V24.92H137.381V24.14H139.021V21.38H139.921V24.14H143.141V24.92H139.921ZM150.295 35.16C149.282 35.16 148.368 34.9333 147.555 34.48C146.742 34.0267 146.102 33.38 145.635 32.54C145.182 31.6867 144.955 30.6933 144.955 29.56C144.955 28.44 145.188 27.46 145.655 26.62C146.122 25.7667 146.762 25.12 147.575 24.68C148.402 24.2267 149.322 24 150.335 24C151.348 24 152.262 24.2267 153.075 24.68C153.888 25.12 154.522 25.76 154.975 26.6C155.442 27.44 155.675 28.4267 155.675 29.56C155.675 30.6933 155.442 31.6867 154.975 32.54C154.508 33.38 153.862 34.0267 153.035 34.48C152.222 34.9333 151.308 35.16 150.295 35.16ZM150.295 34.36C151.082 34.36 151.815 34.1867 152.495 33.84C153.188 33.48 153.742 32.94 154.155 32.22C154.568 31.5 154.775 30.6133 154.775 29.56C154.775 28.52 154.568 27.64 154.155 26.92C153.742 26.2 153.195 25.6667 152.515 25.32C151.835 24.96 151.102 24.78 150.315 24.78C149.528 24.78 148.795 24.96 148.115 25.32C147.448 25.6667 146.908 26.2 146.495 26.92C146.082 27.64 145.875 28.52 145.875 29.56C145.875 30.6133 146.075 31.5 146.475 32.22C146.888 32.94 147.428 33.48 148.095 33.84C148.775 34.1867 149.508 34.36 150.295 34.36ZM159.306 26.38C159.572 25.58 160.046 24.9733 160.726 24.56C161.406 24.1333 162.272 23.92 163.326 23.92V24.86H163.026C161.959 24.86 161.072 25.1667 160.366 25.78C159.659 26.38 159.306 27.3667 159.306 28.74V35H158.406V24.14H159.306V26.38ZM175.178 28.84C175.178 29.32 175.164 29.68 175.138 29.92H165.758C165.784 30.8933 165.998 31.7133 166.398 32.38C166.798 33.0467 167.324 33.5467 167.978 33.88C168.631 34.2133 169.344 34.38 170.118 34.38C171.184 34.38 172.078 34.12 172.798 33.6C173.518 33.0667 173.971 32.3467 174.158 31.44H175.098C174.884 32.5467 174.338 33.4467 173.458 34.14C172.578 34.82 171.464 35.16 170.118 35.16C169.104 35.16 168.198 34.9333 167.398 34.48C166.598 34.0267 165.971 33.38 165.518 32.54C165.064 31.6867 164.838 30.6933 164.838 29.56C164.838 28.4267 165.058 27.44 165.498 26.6C165.951 25.76 166.578 25.12 167.378 24.68C168.178 24.2267 169.091 24 170.118 24C171.158 24 172.058 24.2267 172.818 24.68C173.591 25.12 174.178 25.7133 174.578 26.46C174.978 27.1933 175.178 27.9867 175.178 28.84ZM174.278 29.18C174.318 28.22 174.144 27.4067 173.758 26.74C173.384 26.0733 172.871 25.58 172.218 25.26C171.564 24.9267 170.858 24.76 170.098 24.76C169.338 24.76 168.631 24.9267 167.978 25.26C167.338 25.58 166.811 26.0733 166.398 26.74C165.998 27.4067 165.784 28.22 165.758 29.18H174.278Z" fill="white"/>
</svg>
