<svg width="165" height="48" viewBox="0 0 165 48" fill="none" xmlns="http://www.w3.org/2000/svg">
<path d="M21.728 35H14.624L9.12 23.608L7.104 35H0L4 12.344H11.104L16.576 23.928L18.624 12.344H25.728L21.728 35Z" fill="#EF233C"/>
<path d="M41.0655 31.576H33.5135L32.3935 35H24.9375L33.2255 12.344H41.4175L49.6735 35H42.1855L41.0655 31.576ZM39.3375 26.232L37.2895 19.928L35.2415 26.232H39.3375ZM62.6795 35L58.4235 26.872H58.3915V35H51.2875V12.344H61.8475C63.6822 12.344 65.2502 12.6747 66.5515 13.336C67.8528 13.976 68.8235 14.8613 69.4635 15.992C70.1248 17.1013 70.4555 18.36 70.4555 19.768C70.4555 21.2827 70.0288 22.6267 69.1755 23.8C68.3435 24.9733 67.1382 25.816 65.5595 26.328L70.4875 35H62.6795ZM58.3915 22.136H61.2075C61.8902 22.136 62.4022 21.9867 62.7435 21.688C63.0848 21.368 63.2555 20.8773 63.2555 20.216C63.2555 19.6187 63.0742 19.1493 62.7115 18.808C62.3702 18.4667 61.8688 18.296 61.2075 18.296H58.3915V22.136ZM86.421 35L79.829 25.176V35H72.725V12.344H79.829V21.88L86.325 12.344H94.357L86.549 23.192L94.869 35H86.421ZM107.921 35.224C105.788 35.224 103.825 34.7227 102.033 33.72C100.263 32.7173 98.8546 31.3307 97.8093 29.56C96.7639 27.7893 96.2413 25.7947 96.2413 23.576C96.2413 21.3573 96.7639 19.3627 97.8093 17.592C98.8546 15.8213 100.263 14.4453 102.033 13.464C103.825 12.4613 105.788 11.96 107.921 11.96C110.055 11.96 112.007 12.4613 113.777 13.464C115.548 14.4453 116.945 15.8213 117.969 17.592C119.015 19.3627 119.537 21.3573 119.537 23.576C119.537 25.7947 119.015 27.7893 117.969 29.56C116.945 31.3307 115.537 32.7173 113.745 33.72C111.975 34.7227 110.033 35.224 107.921 35.224ZM107.921 28.6C109.329 28.6 110.417 28.152 111.185 27.256C111.953 26.3387 112.337 25.112 112.337 23.576C112.337 22.0187 111.953 20.792 111.185 19.896C110.417 18.9787 109.329 18.52 107.921 18.52C106.492 18.52 105.393 18.9787 104.625 19.896C103.857 20.792 103.473 22.0187 103.473 23.576C103.473 25.112 103.857 26.3387 104.625 27.256C105.393 28.152 106.492 28.6 107.921 28.6Z" fill="white"/>
<path d="M129.54 27C129.847 26.12 130.4 25.4 131.2 24.84C132.013 24.28 132.993 24 134.14 24C135.153 24 136.053 24.2267 136.84 24.68C137.64 25.1333 138.26 25.78 138.7 26.62C139.153 27.46 139.38 28.44 139.38 29.56C139.38 30.68 139.153 31.6667 138.7 32.52C138.26 33.36 137.64 34.0133 136.84 34.48C136.053 34.9333 135.153 35.16 134.14 35.16C133.007 35.16 132.033 34.88 131.22 34.32C130.42 33.7467 129.86 33.0267 129.54 32.16V40.12H128.64V24.14H129.54V27ZM138.46 29.56C138.46 28.5733 138.273 27.72 137.9 27C137.527 26.28 137 25.7333 136.32 25.36C135.653 24.9733 134.88 24.78 134 24.78C133.16 24.78 132.4 24.98 131.72 25.38C131.04 25.7667 130.507 26.3267 130.12 27.06C129.733 27.78 129.54 28.6133 129.54 29.56C129.54 30.52 129.733 31.3667 130.12 32.1C130.507 32.82 131.04 33.38 131.72 33.78C132.4 34.1667 133.16 34.36 134 34.36C134.88 34.36 135.653 34.1667 136.32 33.78C137 33.3933 137.527 32.84 137.9 32.12C138.273 31.4 138.46 30.5467 138.46 29.56ZM141.537 29.56C141.537 28.44 141.757 27.46 142.197 26.62C142.65 25.78 143.27 25.1333 144.057 24.68C144.857 24.2267 145.764 24 146.777 24C147.924 24 148.897 24.28 149.697 24.84C150.497 25.4 151.057 26.1133 151.377 26.98V24.14H152.277V35H151.377V32.14C151.057 33.02 150.49 33.7467 149.677 34.32C148.877 34.88 147.91 35.16 146.777 35.16C145.764 35.16 144.857 34.9333 144.057 34.48C143.27 34.0133 142.65 33.36 142.197 32.52C141.757 31.6667 141.537 30.68 141.537 29.56ZM151.377 29.56C151.377 28.6133 151.177 27.78 150.777 27.06C150.39 26.3267 149.857 25.7667 149.177 25.38C148.497 24.98 147.737 24.78 146.897 24.78C146.017 24.78 145.244 24.9733 144.577 25.36C143.91 25.7333 143.39 26.28 143.017 27C142.644 27.72 142.457 28.5733 142.457 29.56C142.457 30.5467 142.644 31.4 143.017 32.12C143.39 32.84 143.91 33.3933 144.577 33.78C145.257 34.1667 146.03 34.36 146.897 34.36C147.737 34.36 148.497 34.1667 149.177 33.78C149.87 33.38 150.41 32.82 150.797 32.1C151.184 31.3667 151.377 30.52 151.377 29.56ZM164.034 24.14L157.714 40.1H156.794L158.814 35L154.254 24.14H155.234L159.314 34L163.114 24.14H164.034Z" fill="white"/>
</svg>
