<svg width="30" height="30" viewBox="0 0 30 30" fill="current" xmlns="http://www.w3.org/2000/svg">
<path d="M15.0001 13.75C15.989 13.75 16.9557 13.4568 17.7779 12.9074C18.6002 12.3579 19.241 11.5771 19.6195 10.6634C19.9979 9.74979 20.0969 8.74446 19.904 7.77455C19.7111 6.80465 19.2349 5.91373 18.5356 5.21447C17.8363 4.51521 16.9454 4.039 15.9755 3.84608C15.0056 3.65315 14.0003 3.75217 13.0866 4.1306C12.173 4.50904 11.3921 5.14991 10.8427 5.97215C10.2933 6.7944 10.0001 7.7611 10.0001 8.75C10.0001 10.0761 10.5268 11.3479 11.4645 12.2855C12.4022 13.2232 13.674 13.75 15.0001 13.75Z" fill="#EF233C"/>
<path d="M22.5 26.25C22.8315 26.25 23.1495 26.1183 23.3839 25.8839C23.6183 25.6495 23.75 25.3315 23.75 25C23.75 22.6794 22.8281 20.4538 21.1872 18.8128C19.5462 17.1719 17.3206 16.25 15 16.25C12.6794 16.25 10.4538 17.1719 8.81282 18.8128C7.17187 20.4538 6.25 22.6794 6.25 25C6.25 25.3315 6.3817 25.6495 6.61612 25.8839C6.85054 26.1183 7.16848 26.25 7.5 26.25H22.5Z" fill="#EF233C"/>
</svg>
