<svg xmlns="http://www.w3.org/2000/svg" version="1.1" xmlns:xlink="http://www.w3.org/1999/xlink" xmlns:svgjs="http://svgjs.com/svgjs" width="1440" height="560" preserveAspectRatio="none" viewBox="0 0 1440 560"><g mask="url(&quot;#SvgjsMask1147&quot;)" fill="none"><rect width="1440" height="560" x="0" y="0" fill="rgba(217, 4, 41, 1)"></rect><path d="M -268.1956371081375,293 C -196.2,281 -52.2,227.8 91.80436289186255,233 C 235.8,238.2 307.8,324 451.8043628918625,319 C 595.8,314 667.8,194 811.8043628918625,208 C 955.8,222 1027.8,381.8 1171.8043628918626,389 C 1315.8,396.2 1478.17,252.8 1531.8043628918626,244 C 1585.44,235.2 1458.36,324.8 1440,345" stroke="rgba(43, 45, 66, 1)" stroke-width="2"></path><path d="M -210.69477448092303,387 C -138.69,345.6 5.31,182 149.30522551907697,180 C 293.31,178 365.31,360.2 509.305225519077,377 C 653.31,393.8 725.31,281.4 869.305225519077,264 C 1013.31,246.6 1085.31,301.8 1229.3052255190769,290 C 1373.31,278.2 1547.17,194 1589.3052255190769,205 C 1631.44,216 1469.86,317 1440,345" stroke="rgba(43, 45, 66, 1)" stroke-width="2"></path><path d="M -397.67544021127804,210 C -325.68,236.8 -181.68,337 -37.675440211278044,344 C 106.32,351 178.32,244.2 322.32455978872196,245 C 466.32,245.8 538.32,345 682.3245597887219,348 C 826.32,351 898.32,261.4 1042.324559788722,260 C 1186.32,258.6 1322.79,358 1402.324559788722,341 C 1481.86,324 1432.46,208.2 1440,175" stroke="rgba(43, 45, 66, 1)" stroke-width="2"></path><path d="M -221.1930246150033,362 C -149.19,333 -5.19,212.4 138.8069753849967,217 C 282.81,221.6 354.81,389.4 498.8069753849967,385 C 642.81,380.6 714.81,201.6 858.8069753849967,195 C 1002.81,188.4 1074.81,341.4 1218.8069753849968,352 C 1362.81,362.6 1534.57,248.6 1578.8069753849968,248 C 1623.05,247.4 1467.76,328.8 1440,349" stroke="rgba(43, 45, 66, 1)" stroke-width="2"></path><path d="M -19.33535340563742,188 C 52.66,208.6 196.66,289.4 340.6646465943626,291 C 484.66,292.6 556.66,183.6 700.6646465943626,196 C 844.66,208.4 916.66,344 1060.6646465943627,353 C 1204.66,362 1276.66,244.6 1420.6646465943627,241 C 1564.66,237.4 1776.8,328.6 1780.6646465943627,335 C 1784.53,341.4 1508.13,285.4 1440,273" stroke="rgba(43, 45, 66, 1)" stroke-width="2"></path><path d="M -96.67523836905343,289 C -24.68,280 119.32,239.6 263.32476163094657,244 C 407.32,248.4 479.32,312 623.3247616309466,311 C 767.32,310 839.32,224.2 983.3247616309466,239 C 1127.32,253.8 1199.32,379.2 1343.3247616309466,385 C 1487.32,390.8 1683.99,284.2 1703.3247616309466,268 C 1722.66,251.8 1492.66,296.8 1440,304" stroke="rgba(43, 45, 66, 1)" stroke-width="2"></path><path d="M -208.8271842494785,294 C -136.83,280.8 7.17,217.4 151.1728157505215,228 C 295.17,238.6 367.17,342.6 511.1728157505215,347 C 655.17,351.4 727.17,262.4 871.1728157505215,250 C 1015.17,237.6 1087.17,295.4 1231.1728157505215,285 C 1375.17,274.6 1549.41,190.2 1591.1728157505215,198 C 1632.94,205.8 1470.23,298.8 1440,324" stroke="rgba(239, 35, 60, 1)" stroke-width="2"></path><path d="M -622.870374165996,378 C -550.87,358.2 -406.87,292 -262.870374165996,279 C -118.87,266 -46.87,321.4 97.129625834004,313 C 241.13,304.6 313.13,221.8 457.129625834004,237 C 601.13,252.2 673.13,383.8 817.129625834004,389 C 961.13,394.2 1052.56,280.4 1177.129625834004,263 C 1301.7,245.6 1387.43,294.2 1440,302" stroke="rgba(239, 35, 60, 1)" stroke-width="2"></path><path d="M -56.49667272169711,247 C 15.5,260.8 159.5,312.2 303.5033272783029,316 C 447.5,319.8 519.5,268 663.5033272783029,266 C 807.5,264 879.5,320.8 1023.5033272783029,306 C 1167.5,291.2 1239.5,179.6 1383.503327278303,192 C 1527.5,204.4 1732.2,351 1743.503327278303,368 C 1754.8,385 1500.7,295.2 1440,277" stroke="rgba(239, 35, 60, 1)" stroke-width="2"></path><path d="M -95.35964427987449,236 C -23.36,245.6 120.64,278.2 264.6403557201255,284 C 408.64,289.8 480.64,257 624.6403557201255,265 C 768.64,273 840.64,339.4 984.6403557201255,324 C 1128.64,308.6 1200.64,191.2 1344.6403557201256,188 C 1488.64,184.8 1685.57,295.2 1704.6403557201256,308 C 1723.71,320.8 1492.93,263.2 1440,252" stroke="rgba(43, 45, 66, 1)" stroke-width="2"></path></g><defs><mask id="SvgjsMask1147"><rect width="1440" height="560" fill="#ffffff"></rect></mask></defs></svg>