<svg xmlns="http://www.w3.org/2000/svg" version="1.1" xmlns:xlink="http://www.w3.org/1999/xlink" xmlns:svgjs="http://svgjs.com/svgjs" width="1440" height="560" preserveAspectRatio="none" viewBox="0 0 1440 560"><g mask="url(&quot;#SvgjsMask1149&quot;)" fill="none"><rect width="1440" height="560" x="0" y="0" fill="rgba(217, 4, 41, 1)"></rect><path d="M -191.70446933931248,254 C -119.7,261.2 24.3,296.8 168.29553066068752,290 C 312.3,283.2 384.3,201.6 528.2955306606875,220 C 672.3,238.4 744.3,378.6 888.2955306606875,382 C 1032.3,385.4 1104.3,237.2 1248.2955306606875,237 C 1392.3,236.8 1569.95,373.8 1608.2955306606875,381 C 1646.64,388.2 1473.66,294.6 1440,273" stroke="rgba(43, 45, 66, 1)" stroke-width="2"></path><path d="M -323.20607382722983,318 C -251.21,292.4 -107.21,189.6 36.793926172770185,190 C 180.79,190.4 252.79,304 396.79392617277017,320 C 540.79,336 612.79,273.8 756.7939261727702,270 C 900.79,266.2 972.79,306 1116.7939261727702,301 C 1260.79,296 1412.15,238.4 1476.7939261727702,245 C 1541.44,251.6 1447.36,316.2 1440,334" stroke="rgba(239, 35, 60, 1)" stroke-width="2"></path><path d="M -72.28075341059349,244 C -0.28,259.8 143.72,328.4 287.7192465894065,323 C 431.72,317.6 503.72,222.2 647.7192465894066,217 C 791.72,211.8 863.72,291.4 1007.7192465894066,297 C 1151.72,302.6 1223.72,234.4 1367.7192465894066,245 C 1511.72,255.6 1713.26,352 1727.7192465894066,350 C 1742.18,348 1497.54,258 1440,235" stroke="rgba(239, 35, 60, 1)" stroke-width="2"></path><path d="M -22.79050752604013,298 C 49.21,284 193.21,216.2 337.20949247395987,228 C 481.21,239.8 553.21,358.4 697.2094924739599,357 C 841.21,355.6 913.21,224 1057.20949247396,221 C 1201.21,218 1273.21,330.6 1417.20949247396,342 C 1561.21,353.4 1772.65,274 1777.20949247396,278 C 1781.77,282 1507.44,345.2 1440,362" stroke="rgba(43, 45, 66, 1)" stroke-width="2"></path><path d="M -61.34909651914131,347 C 10.65,332.4 154.65,282 298.6509034808587,274 C 442.65,266 514.65,316.4 658.6509034808587,307 C 802.65,297.6 874.65,213.4 1018.6509034808587,227 C 1162.65,240.6 1234.65,378.4 1378.6509034808587,375 C 1522.65,371.6 1726.38,214 1738.6509034808587,210 C 1750.92,206 1499.73,326 1440,355" stroke="rgba(239, 35, 60, 1)" stroke-width="2"></path><path d="M -340.0836541898659,392 C -268.08,357 -124.08,229.4 19.916345810134068,217 C 163.92,204.6 235.92,335.8 379.9163458101341,330 C 523.92,324.2 595.92,178 739.9163458101341,188 C 883.92,198 955.92,362.4 1099.916345810134,380 C 1243.92,397.6 1391.9,279.4 1459.916345810134,276 C 1527.93,272.6 1443.98,345.6 1440,363" stroke="rgba(43, 45, 66, 1)" stroke-width="2"></path><path d="M -515.4190691079976,361 C -443.42,324.6 -299.42,175.6 -155.41906910799767,179 C -11.42,182.4 60.58,372.8 204.58093089200233,378 C 348.58,383.2 420.58,216.6 564.5809308920024,205 C 708.58,193.4 780.58,325.4 924.5809308920024,320 C 1068.58,314.6 1181.5,166 1284.5809308920022,178 C 1387.66,190 1408.92,339.6 1440,380" stroke="rgba(43, 45, 66, 1)" stroke-width="2"></path><path d="M -119.90157242198066,266 C -47.9,291 96.1,394.2 240.09842757801934,391 C 384.1,387.8 456.1,256.2 600.0984275780194,250 C 744.1,243.8 816.1,369.4 960.0984275780194,360 C 1104.1,350.6 1176.1,207.6 1320.0984275780193,203 C 1464.1,198.4 1656.12,335.6 1680.0984275780193,337 C 1704.08,338.4 1488.02,235.4 1440,210" stroke="rgba(43, 45, 66, 1)" stroke-width="2"></path><path d="M -567.8337511011473,357 C -495.83,326.4 -351.83,199.4 -207.83375110114727,204 C -63.83,208.6 8.17,376.2 152.16624889885273,380 C 296.17,383.8 368.17,230.6 512.1662488988527,223 C 656.17,215.4 728.17,351.6 872.1662488988527,342 C 1016.17,332.4 1118.6,175.8 1232.1662488988527,175 C 1345.73,174.2 1398.43,305.4 1440,338" stroke="rgba(43, 45, 66, 1)" stroke-width="2"></path><path d="M -402.109741787082,187 C -330.11,210.2 -186.11,297.2 -42.109741787082,303 C 101.89,308.8 173.89,218.8 317.890258212918,216 C 461.89,213.2 533.89,278.2 677.890258212918,289 C 821.89,299.8 893.89,266.2 1037.890258212918,270 C 1181.89,273.8 1317.47,321.8 1397.890258212918,308 C 1478.31,294.2 1431.58,222.4 1440,201" stroke="rgba(43, 45, 66, 1)" stroke-width="2"></path></g><defs><mask id="SvgjsMask1149"><rect width="1440" height="560" fill="#ffffff"></rect></mask></defs></svg>