<svg xmlns="http://www.w3.org/2000/svg" version="1.1" xmlns:xlink="http://www.w3.org/1999/xlink" xmlns:svgjs="http://svgjs.com/svgjs" width="1440" height="560" preserveAspectRatio="none" viewBox="0 0 1440 560"><g mask="url(&quot;#SvgjsMask1148&quot;)" fill="none"><rect width="1440" height="560" x="0" y="0" fill="rgba(217, 4, 41, 1)"></rect><path d="M -717.3541171977895,343 C -645.35,309.2 -501.35,166.4 -357.35411719778955,174 C -213.35,181.6 -141.35,376.6 2.6458828022104512,381 C 146.65,385.4 218.65,207.2 362.64588280221045,196 C 506.65,184.8 578.65,314.6 722.6458828022105,325 C 866.65,335.4 939.18,251 1082.6458828022105,248 C 1226.12,245 1368.53,297.6 1440,310" stroke="rgba(239, 35, 60, 1)" stroke-width="2"></path><path d="M -170.27425260270985,171 C -98.27,211 45.73,363.8 189.72574739729015,371 C 333.73,378.2 405.73,209.4 549.7257473972902,207 C 693.73,204.6 765.73,347.6 909.7257473972902,359 C 1053.73,370.4 1125.73,278.6 1269.7257473972902,264 C 1413.73,249.4 1595.67,289 1629.7257473972902,286 C 1663.78,283 1477.95,256.4 1440,249" stroke="rgba(239, 35, 60, 1)" stroke-width="2"></path><path d="M -700.2931748297815,342 C -628.29,319.2 -484.29,238.8 -340.29317482978155,228 C -196.29,217.2 -124.29,293.4 19.70682517021845,288 C 163.71,282.6 235.71,185 379.70682517021845,201 C 523.71,217 595.71,371.2 739.7068251702185,368 C 883.71,364.8 959.65,185.2 1099.7068251702185,185 C 1239.77,184.8 1371.94,330.6 1440,367" stroke="rgba(43, 45, 66, 1)" stroke-width="2"></path><path d="M -216.40076213250137,382 C -144.4,354 -0.4,249 143.59923786749863,242 C 287.6,235 359.6,358.2 503.59923786749863,347 C 647.6,335.8 719.6,185.4 863.5992378674987,186 C 1007.6,186.6 1079.6,345.2 1223.5992378674987,350 C 1367.6,354.8 1540.32,208.4 1583.5992378674987,210 C 1626.88,211.6 1468.72,328.4 1440,358" stroke="rgba(239, 35, 60, 1)" stroke-width="2"></path><path d="M -248.30599014101182,330 C -176.31,308 -32.31,217.4 111.69400985898818,220 C 255.69,222.6 327.69,351 471.6940098589882,343 C 615.69,335 687.69,187.2 831.6940098589882,180 C 975.69,172.8 1047.69,305.6 1191.6940098589882,307 C 1335.69,308.4 1502.03,183 1551.6940098589882,187 C 1601.36,191 1462.34,299 1440,327" stroke="rgba(43, 45, 66, 1)" stroke-width="2"></path><path d="M -499.1357676945761,227 C -427.14,245.8 -283.14,329.8 -139.13576769457606,321 C 4.86,312.2 76.86,191 220.86423230542394,183 C 364.86,175 436.86,277.6 580.8642323054239,281 C 724.86,284.4 796.86,190.4 940.8642323054239,200 C 1084.86,209.6 1201.04,333.2 1300.864232305424,329 C 1400.69,324.8 1412.17,209 1440,179" stroke="rgba(239, 35, 60, 1)" stroke-width="2"></path><path d="M -377.1303324457659,244 C -305.13,258.6 -161.13,329 -17.130332445765866,317 C 126.87,305 198.87,171.6 342.8696675542341,184 C 486.87,196.4 558.87,373 702.8696675542342,379 C 846.87,385 918.87,218.6 1062.8696675542342,214 C 1206.87,209.4 1347.44,349.6 1422.8696675542342,356 C 1498.3,362.4 1436.57,268 1440,246" stroke="rgba(239, 35, 60, 1)" stroke-width="2"></path><path d="M -38.173133875491544,322 C 33.83,309.8 177.83,257 321.82686612450846,261 C 465.83,265 537.83,357.2 681.8268661245085,342 C 825.83,326.8 897.83,186.8 1041.8268661245083,185 C 1185.83,183.2 1257.83,324.4 1401.8268661245083,333 C 1545.83,341.6 1754.19,237.4 1761.8268661245083,228 C 1769.46,218.6 1504.37,274.4 1440,286" stroke="rgba(43, 45, 66, 1)" stroke-width="2"></path><path d="M -478.07291575319516,202 C -406.07,233.4 -262.07,346.8 -118.07291575319516,359 C 25.93,371.2 97.93,266.8 241.92708424680484,263 C 385.93,259.2 457.93,346.2 601.9270842468048,340 C 745.93,333.8 817.93,226.2 961.9270842468048,232 C 1105.93,237.8 1226.31,373.4 1321.927084246805,369 C 1417.54,364.6 1416.39,241.8 1440,210" stroke="rgba(239, 35, 60, 1)" stroke-width="2"></path><path d="M -406.55300819642997,238 C -334.55,259.4 -190.55,350.6 -46.55300819642996,345 C 97.45,339.4 169.45,207.8 313.44699180357003,210 C 457.45,212.2 529.45,355.2 673.4469918035701,356 C 817.45,356.8 889.45,209.4 1033.44699180357,214 C 1177.45,218.6 1312.14,385.2 1393.44699180357,379 C 1474.76,372.8 1430.69,222.2 1440,183" stroke="rgba(43, 45, 66, 1)" stroke-width="2"></path></g><defs><mask id="SvgjsMask1148"><rect width="1440" height="560" fill="#ffffff"></rect></mask></defs></svg>